HIERARCHY
ROOT Hips
{
	OFFSET -0.001795 -0.223333 0.028219
	CHANNELS 6 Xposition Yposition Zposition Zrotation Yrotation Xrotation 
	JOINT LeftUpLeg
	{
		OFFSET 0.069520 -0.091406 -0.006815
		CHANNELS 3 Zrotation Yrotation Xrotation
		JOINT LeftLeg
		{
			OFFSET 0.034277 -0.375199 -0.004496
			CHANNELS 3 Zrotation Yrotation Xrotation
			JOINT LeftFoot
			{
				OFFSET -0.013596 -0.397961 -0.043693
				CHANNELS 3 Zrotation Yrotation Xrotation
				JOINT LeftToe
				{
					OFFSET 0.026358 -0.055791 0.119288
					CHANNELS 3 Zrotation Yrotation Xrotation
					End Site
					{
						OFFSET 0.000000 0.000000 0.000000
					}
				}
			}
		}
	}
	JOINT RightUpLeg
	{
		OFFSET -0.067670 -0.090522 -0.004320
		CHANNELS 3 Zrotation Yrotation Xrotation
		JOINT RightLeg
		{
			OFFSET -0.038290 -0.382569 -0.008850
			CHANNELS 3 Zrotation Yrotation Xrotation
			JOINT RightFoot
			{
				OFFSET 0.015774 -0.398415 -0.042312
				CHANNELS 3 Zrotation Yrotation Xrotation
				JOINT RightToe
				{
					OFFSET -0.025372 -0.048144 0.123348
					CHANNELS 3 Zrotation Yrotation Xrotation
					End Site
					{
						OFFSET 0.000000 0.000000 0.000000
					}
				}
			}
		}
	}
	JOINT Spine
	{
		OFFSET -0.002533 0.108963 -0.026696
		CHANNELS 3 Zrotation Yrotation Xrotation
		JOINT Spine1
		{
			OFFSET 0.005487 0.135180 0.001092
			CHANNELS 3 Zrotation Yrotation Xrotation
			JOINT Spine2
			{
				OFFSET 0.001457 0.052922 0.025425
				CHANNELS 3 Zrotation Yrotation Xrotation
				JOINT Neck
				{
					OFFSET -0.002778 0.213870 -0.042857
					CHANNELS 3 Zrotation Yrotation Xrotation
					JOINT Head
					{
						OFFSET 0.005152 0.064970 0.051349
						CHANNELS 3 Zrotation Yrotation Xrotation
						End Site
						{
							OFFSET 0.000000 0.000000 0.000000
						}
					}
				}
				JOINT LeftShoulder
				{
					OFFSET 0.078845 0.121749 -0.034090
					CHANNELS 3 Zrotation Yrotation Xrotation
					JOINT LeftArm
					{
						OFFSET 0.090977 0.030469 -0.008868
						CHANNELS 3 Zrotation Yrotation Xrotation
						JOINT LeftForeArm
						{
							OFFSET 0.259612 -0.012772 -0.027456
							CHANNELS 3 Zrotation Yrotation Xrotation
							JOINT LeftHand
							{
								OFFSET 0.249234 0.008986 -0.001171
								CHANNELS 3 Zrotation Yrotation Xrotation
								End Site
								{
									OFFSET 0.000000 0.000000 0.000000
								}
							}
						}
					}
				}
				JOINT RightShoulder
				{
					OFFSET -0.081759 0.118833 -0.038615
					CHANNELS 3 Zrotation Yrotation Xrotation
					JOINT RightArm
					{
						OFFSET -0.096012 0.032551 -0.009143
						CHANNELS 3 Zrotation Yrotation Xrotation
						JOINT RightForeArm
						{
							OFFSET -0.253742 -0.013329 -0.021401
							CHANNELS 3 Zrotation Yrotation Xrotation
							JOINT RightHand
							{
								OFFSET -0.255298 0.007772 -0.005559
								CHANNELS 3 Zrotation Yrotation Xrotation
								End Site
								{
									OFFSET 0.000000 0.000000 0.000000
								}
							}
						}
					}
				}
			}
		}
	}
}
MOTION
Frames: 17
Frame Time: 0.050000
0.000000 0.859401 0.000000 1.147164 -18.266145 -1.928695 12.424733 3.274171 -33.222913 -7.503119 2.040867 13.395471 10.355127 17.751912 33.240228 0.000000 0.000000 0.000000 -6.837455 0.429813 4.585279 3.095347 1.833415 28.850786 -5.996899 -4.701876 -15.449977 0.000000 0.000000 0.000000 2.492525 -0.403144 28.230017 -8.362592 2.178423 -26.296240 2.121952 11.472919 26.056617 11.350674 -6.471582 -18.394495 0.000000 0.000000 0.000000 -27.794491 -12.405337 6.063139 -38.524939 -8.280688 -4.040547 -9.871712 -29.786380 3.884157 0.000000 0.000000 0.000000 36.602659 4.270882 0.858481 36.413145 16.415279 -1.030590 10.108381 35.352053 4.566865 0.000000 0.000000 0.000000 
0.018619 0.846523 0.043844 -0.857456 -19.640581 -0.393172 13.651401 4.453005 -36.087300 -9.078501 3.462925 21.115123 13.459163 20.834088 33.605872 0.000000 0.000000 0.000000 -7.573353 0.604171 -1.242993 5.256973 2.952410 41.359909 -4.177950 -5.547632 -7.565720 0.000000 0.000000 0.000000 3.120591 -0.407004 30.652119 -8.660318 2.195512 -25.299052 2.355724 9.659965 23.995676 10.455085 -6.856295 -14.337714 0.000000 0.000000 0.000000 -30.791569 -11.405638 6.385695 -35.663063 -9.477029 -3.643337 -8.246966 -30.531302 3.597944 0.000000 0.000000 0.000000 36.231678 4.871934 0.173113 36.806060 15.398743 -0.866228 10.872560 37.204694 4.932436 0.000000 0.000000 0.000000 
0.037489 0.841458 0.082397 -0.387266 -19.388963 0.132088 12.077693 4.278003 -39.476381 -10.450483 5.299911 29.795813 16.725758 24.184883 34.879888 0.000000 0.000000 0.000000 -12.308597 0.996474 -8.919546 14.501075 -0.405168 55.344909 -5.297623 -14.300021 5.079771 0.000000 0.000000 0.000000 1.486177 0.289334 34.975845 -6.389447 1.582068 -25.470795 0.996236 8.017537 24.196535 10.586207 -6.680497 -16.698680 0.000000 0.000000 0.000000 -32.907207 -14.475280 9.030790 -31.290991 -11.819775 -2.884944 -6.426814 -30.924144 3.034357 0.000000 0.000000 0.000000 35.367124 8.661662 2.733767 34.484937 16.304407 -0.624382 7.594350 38.216000 3.893863 0.000000 0.000000 0.000000 
0.054937 0.836625 0.111565 -1.337195 -21.563690 1.436893 13.479330 5.614428 -40.687343 -13.107497 7.521739 33.288262 18.885435 26.355287 33.100180 0.000000 0.000000 0.000000 -14.414992 1.374375 -18.815433 22.859446 -5.046583 65.452556 -10.839819 -24.958431 17.124006 0.000000 0.000000 0.000000 1.864543 0.917834 40.610964 -7.108791 1.655715 -26.478382 0.212647 6.368000 22.301722 10.527592 -7.253358 -14.108356 0.000000 0.000000 0.000000 -31.959621 -16.161926 10.740421 -29.174188 -12.644627 -2.624386 -5.086891 -34.468657 2.986603 0.000000 0.000000 0.000000 36.128088 10.117684 2.884761 30.914594 16.787820 -0.227204 8.178885 39.987521 4.119125 0.000000 0.000000 0.000000 
0.071169 0.827074 0.132205 -1.963775 -25.127767 2.849931 13.775000 7.453109 -43.769194 -13.684001 10.019517 40.105089 19.943901 27.918273 29.074539 0.000000 0.000000 0.000000 -17.152774 2.200295 -30.198100 35.926957 -13.419496 66.374270 -23.339404 -39.855201 26.233553 0.000000 0.000000 0.000000 2.257356 2.423503 48.370754 -6.648260 1.414699 -31.329345 -1.860262 5.161199 24.667847 10.306512 -6.933254 -17.102699 0.000000 0.000000 0.000000 -31.544960 -19.313317 13.618891 -24.870275 -16.272907 -2.048519 0.219340 -34.576732 1.237977 0.000000 0.000000 0.000000 35.431230 13.307755 4.626131 29.010838 19.947271 0.357124 4.975331 39.345623 2.873069 0.000000 0.000000 0.000000 
0.085880 0.813927 0.144979 -2.208393 -26.943911 4.082693 12.520610 8.221335 -47.053020 -13.283141 11.418109 45.321475 22.094074 31.140078 24.774508 0.000000 0.000000 0.000000 -19.291611 2.979247 -38.834136 45.025337 -18.376780 61.508806 -26.605041 -44.618526 24.546056 0.000000 0.000000 0.000000 3.514359 3.594624 56.425423 -7.464453 1.454912 -34.193991 -3.309857 1.784505 23.528468 9.917248 -6.370283 -20.086440 0.000000 0.000000 0.000000 -28.256485 -21.304524 14.847839 -23.496160 -18.896701 -1.550054 2.650987 -35.288551 0.477090 0.000000 0.000000 0.000000 34.578120 16.917936 6.186577 27.676312 21.465484 0.925343 -0.335395 39.139292 0.940910 0.000000 0.000000 0.000000 
0.098861 0.792011 0.151740 -2.885755 -28.578032 6.090944 12.443649 10.294495 -51.990553 -13.614821 13.460321 51.932875 21.493361 32.003688 18.948328 0.000000 0.000000 0.000000 -21.407603 3.808456 -46.699117 50.488428 -21.809506 59.416128 -22.865033 -41.959515 19.662646 0.000000 0.000000 0.000000 4.934691 4.409172 62.112710 -8.351768 1.556605 -35.170038 -4.381857 0.553009 23.297966 10.996957 -6.668434 -22.122348 0.000000 0.000000 0.000000 -23.946164 -23.585116 15.204432 -21.565268 -22.542305 -0.922551 7.702057 -34.635075 -1.059577 0.000000 0.000000 0.000000 32.747154 17.548530 6.484135 25.952598 25.542410 1.494605 -3.235894 38.821144 -0.056043 0.000000 0.000000 0.000000 
0.109816 0.761779 0.153973 -3.167046 -28.196161 7.041770 11.282202 11.324354 -57.713121 -11.866785 14.256400 62.224363 15.351673 26.995617 6.301130 0.000000 0.000000 0.000000 -23.925251 3.658016 -51.878446 55.698869 -24.941633 55.749730 -24.335041 -44.410523 18.443260 0.000000 0.000000 0.000000 6.855864 4.026756 67.841166 -7.635262 1.369839 -35.435345 -5.789434 -0.189098 22.224991 13.051034 -7.245470 -24.283389 0.000000 0.000000 0.000000 -20.659536 -26.646945 15.637944 -18.802025 -24.758577 -0.539781 12.076421 -33.527628 -2.367421 0.000000 0.000000 0.000000 30.975344 18.357963 7.488699 22.662809 27.265491 1.261696 -8.465415 38.427603 -1.773574 0.000000 0.000000 0.000000 
0.118023 0.721180 0.154228 -3.099891 -28.284892 8.127458 9.928801 12.675117 -64.225543 -10.844808 14.821108 72.009686 12.793454 24.296965 -2.908272 0.000000 0.000000 0.000000 -27.362762 3.056005 -56.131537 60.106690 -28.114050 53.680583 -23.959064 -46.063764 13.598679 0.000000 0.000000 0.000000 8.640582 3.472319 71.598167 -7.632313 1.345299 -35.823050 -7.494701 -1.365294 23.225590 14.015923 -7.180329 -27.369345 0.000000 0.000000 0.000000 -16.740064 -29.132130 15.862594 -16.235001 -26.271606 -0.513833 17.471173 -31.459022 -3.703346 0.000000 0.000000 0.000000 27.688921 20.365652 8.633118 20.393711 29.351924 1.094498 -12.803989 36.784829 -3.095854 0.000000 0.000000 0.000000 
0.123899 0.673543 0.153882 -2.820412 -28.279328 8.542447 9.066888 14.317027 -70.796052 -10.700455 15.611360 82.508295 10.571680 20.324822 -10.724729 0.000000 0.000000 0.000000 -31.353726 1.921753 -60.647700 64.769512 -33.008270 53.346649 -22.528502 -46.005360 8.519961 0.000000 0.000000 0.000000 10.147233 2.900115 75.980007 -7.453255 1.196527 -37.009356 -7.993415 -2.027510 23.263544 15.238101 -7.081308 -30.299232 0.000000 0.000000 0.000000 -14.645910 -31.072985 16.033351 -14.248627 -26.898081 -0.567064 20.395894 -30.039663 -4.322203 0.000000 0.000000 0.000000 24.624454 20.927787 9.043782 17.019242 30.548108 0.558883 -15.315591 35.344914 -3.749583 0.000000 0.000000 0.000000 
0.127681 0.622475 0.154421 -2.056650 -28.474408 6.735399 9.186828 15.992982 -74.815320 -12.699164 18.799653 91.001325 11.010156 21.696858 -15.913658 0.000000 0.000000 0.000000 -34.145170 0.932145 -63.980675 68.236196 -38.837876 55.911692 -22.010593 -46.904942 3.950754 0.000000 0.000000 0.000000 12.051838 1.878422 80.446767 -8.022312 1.138144 -37.431687 -9.253305 -3.484645 23.845988 16.550185 -8.061412 -29.604585 0.000000 0.000000 0.000000 -12.650904 -32.434312 15.896647 -13.059914 -26.826098 -0.609324 22.977866 -29.281900 -4.909710 0.000000 0.000000 0.000000 23.188952 22.064052 9.587992 13.203044 31.139602 -0.062907 -16.778524 33.866106 -4.078991 0.000000 0.000000 0.000000 
0.130587 0.570439 0.156445 -1.490655 -28.637355 4.716313 9.744142 17.819133 -78.166476 -14.303023 22.350461 100.414026 10.499337 20.470950 -22.560293 0.000000 0.000000 0.000000 -36.922145 -0.295943 -66.872353 73.369776 -44.854828 56.368189 -24.030674 -49.785242 3.001392 0.000000 0.000000 0.000000 13.202022 1.101031 83.711513 -7.174596 0.910751 -38.116687 -10.311511 -3.477639 24.069683 17.565870 -9.046599 -28.061436 0.000000 0.000000 0.000000 -13.189373 -33.859852 16.421855 -12.434049 -25.827995 -0.699142 23.532941 -28.226680 -4.947885 0.000000 0.000000 0.000000 23.400947 22.953780 10.517135 10.357685 30.280093 -0.581828 -16.517742 33.089975 -3.925119 0.000000 0.000000 0.000000 
0.133129 0.519001 0.159883 -0.590684 -29.217976 1.177268 9.996915 19.465286 -80.734674 -15.821318 26.484811 108.725103 10.892221 22.929510 -25.172681 0.000000 0.000000 0.000000 -39.414190 -1.336414 -69.227963 75.669491 -51.357597 60.297117 -25.003730 -50.517334 2.312903 0.000000 0.000000 0.000000 15.013781 -0.124147 87.227113 -7.772371 0.914740 -37.669530 -11.188899 -4.470964 24.134879 19.304411 -10.182668 -28.065856 0.000000 0.000000 0.000000 -12.299464 -34.751513 16.232771 -14.987065 -25.124275 -0.445463 24.349238 -29.518030 -5.411601 0.000000 0.000000 0.000000 22.132448 23.135317 10.456148 10.081113 30.565733 -0.539179 -16.413741 33.384253 -4.012285 0.000000 0.000000 0.000000 
0.135452 0.469350 0.164124 -0.279446 -30.097305 -2.172155 10.303815 21.322444 -82.988932 -16.269128 30.146014 117.623232 10.749083 24.107067 -28.690747 0.000000 0.000000 0.000000 -41.877632 -2.285494 -71.179354 81.516565 -57.738515 60.227730 -27.577101 -52.941062 3.182392 0.000000 0.000000 0.000000 16.074361 -0.641861 89.121078 -7.216330 0.788377 -37.597962 -11.857867 -4.282667 25.257776 18.915738 -9.993186 -28.771726 0.000000 0.000000 0.000000 -12.878118 -34.832413 16.091092 -17.221221 -24.417552 -0.359719 23.701631 -29.897053 -5.350025 0.000000 0.000000 0.000000 21.495119 23.415051 10.737256 10.826436 29.771007 -0.439103 -16.266517 34.454202 -4.165873 0.000000 0.000000 0.000000 
0.137605 0.425821 0.168796 -0.054646 -30.767834 -5.890423 9.722726 22.063513 -85.002565 -15.901067 32.934849 125.272258 10.837158 27.365090 -30.609968 0.000000 0.000000 0.000000 -44.193146 -3.223714 -72.233148 86.958453 -62.883726 59.418735 -30.154424 -54.272727 5.540907 0.000000 0.000000 0.000000 17.515873 -1.657897 90.232388 -8.236409 0.929621 -36.592730 -11.596836 -5.235477 24.925772 19.265409 -10.969435 -26.978779 0.000000 0.000000 0.000000 -14.786630 -35.322136 16.834615 -20.209668 -22.937897 -0.340657 21.949172 -31.931845 -5.218129 0.000000 0.000000 0.000000 22.964426 22.704657 10.319174 12.878934 29.329626 -0.019962 -13.836624 36.017115 -3.670679 0.000000 0.000000 0.000000 
0.139426 0.386447 0.173744 -0.080162 -31.684588 -8.937161 9.432059 23.331897 -87.172465 -14.582858 34.948281 133.832311 10.183300 27.129433 -33.062634 0.000000 0.000000 0.000000 -46.277952 -4.007485 -73.503726 94.607990 -67.389665 55.843620 -32.641380 -55.924013 7.182932 0.000000 0.000000 0.000000 17.871950 -1.467208 90.254799 -8.417878 0.921007 -36.757292 -10.964634 -4.944254 26.142632 17.808249 -11.319382 -23.672843 0.000000 0.000000 0.000000 -17.073573 -35.306519 17.421334 -21.921374 -22.503403 -0.409872 19.594650 -31.984293 -4.578538 0.000000 0.000000 0.000000 24.994650 23.057117 10.834507 14.395631 27.396535 0.076631 -12.412846 38.361706 -3.500978 0.000000 0.000000 0.000000 
0.140872 0.356662 0.178524 -0.288743 -31.885487 -11.583347 8.616197 23.129478 -88.652444 -13.509532 37.027870 139.638743 10.039746 29.834633 -34.796183 0.000000 0.000000 0.000000 -47.997448 -4.824231 -73.555746 99.850763 -70.327672 53.355866 -34.012747 -56.554595 8.372511 0.000000 0.000000 0.000000 18.377341 -1.850307 89.916586 -9.075390 1.096289 -35.791469 -10.551533 -5.628849 24.671106 17.170955 -12.042103 -19.718926 0.000000 0.000000 0.000000 -20.887386 -35.155269 18.735491 -23.944727 -20.923568 -0.609779 16.057885 -32.920251 -3.673936 0.000000 0.000000 0.000000 27.526625 22.812728 10.689733 16.756880 25.393877 0.366878 -7.916936 39.842865 -2.098457 0.000000 0.000000 0.000000 
